<?xml version="1.0" standalone="no"?>
<!DOCTYPE svg PUBLIC "-//W3C//DTD SVG 20010904//EN"
 "http://www.w3.org/TR/2001/REC-SVG-20010904/DTD/svg10.dtd">
<svg version="1.0" xmlns="http://www.w3.org/2000/svg"
 width="320.000000pt" height="320.000000pt" viewBox="0 0 320.000000 320.000000"
 preserveAspectRatio="xMidYMid meet">
<metadata>
Created by potrace 1.14, written by Peter Selinger 2001-2017
</metadata>
<g transform="translate(0.000000,320.000000) scale(0.100000,-0.100000)"
fill="#000000" stroke="none">
<path d="M1796 2440 c-115 -36 -143 -199 -59 -334 34 -53 103 -126 119 -126 8
0 34 9 58 21 l45 21 -63 61 c-73 73 -111 144 -102 196 7 42 22 58 60 65 49 9
106 -36 146 -113 24 -48 32 -50 54 -16 17 26 89 72 121 76 82 11 110 -80 52
-165 -13 -20 -58 -65 -100 -101 -163 -139 -243 -298 -286 -570 -12 -75 -7
-302 8 -375 13 -65 40 -152 51 -163 8 -9 76 18 85 33 3 4 -5 45 -17 91 -19 72
-22 109 -22 259 1 156 4 186 27 275 46 172 82 232 227 375 139 137 171 190
164 274 -13 160 -176 226 -295 119 l-26 -24 -27 39 c-40 59 -82 85 -141 89
-27 1 -63 -2 -79 -7z"/>
<path d="M1028 1932 c-16 -3 -23 -19 -41 -100 -3 -15 0 -25 11 -30 10 -5 95
-8 191 -8 l175 1 8 34 c5 18 7 39 5 45 -3 8 -46 11 -136 10 l-132 -1 6 24 c3
15 1 23 -7 24 -7 0 -24 1 -38 2 -14 2 -33 1 -42 -1z"/>
<path d="M995 1721 c-39 -10 -74 -29 -104 -55 l-24 -21 6 33 c7 34 8 33 -53
36 -39 3 -48 -3 -55 -37 -10 -53 -45 -217 -65 -307 -11 -47 -21 -96 -24 -110
-3 -14 -9 -49 -15 -79 -6 -30 -10 -56 -8 -57 5 -6 97 -8 102 -3 5 5 34 136 41
179 9 70 46 203 63 231 21 34 93 88 120 90 9 0 28 3 43 5 70 12 111 -49 89
-132 -6 -21 -13 -55 -16 -74 -3 -19 -18 -93 -34 -163 -15 -70 -24 -130 -20
-132 14 -9 90 -8 99 1 5 5 11 24 15 42 3 18 22 106 41 195 54 243 49 303 -28
343 -36 19 -129 27 -173 15z"/>
<path d="M1392 1715 c-29 -7 -55 -14 -57 -17 -2 -2 -7 -23 -11 -47 -6 -40 -6
-43 12 -33 19 10 53 15 87 13 35 -2 19 -47 -44 -116 -60 -67 -75 -91 -84 -145
-3 -16 -9 -39 -13 -52 -25 -72 11 -158 81 -195 76 -39 227 -5 288 64 36 42 46
66 65 156 12 58 12 72 0 101 -8 19 -22 39 -33 46 -15 9 -16 12 -3 17 34 14 88
81 109 137 12 32 19 61 17 64 -5 4 -70 6 -103 3 -6 0 -14 -19 -18 -42 -12 -71
-84 -130 -147 -120 -5 0 -8 -5 -9 -11 0 -12 -5 -37 -11 -70 -2 -8 10 -14 35
-16 54 -5 68 -31 55 -102 -18 -100 -52 -137 -128 -142 -36 -2 -46 2 -66 26
-28 32 -30 59 -8 136 10 37 29 70 55 99 83 90 111 155 87 206 -18 41 -81 57
-156 40z"/>
<path d="M2308 1725 c-2 -2 -19 -5 -39 -8 -80 -10 -183 -88 -207 -155 l-11
-32 58 0 c56 0 60 2 82 35 64 93 219 83 219 -15 0 -43 -26 -106 -88 -213 l-57
-99 -7 34 c-4 18 -9 60 -13 93 -8 78 -9 88 -17 100 -7 11 -143 13 -154 3 -3
-4 -9 -22 -14 -42 -8 -36 4 -51 33 -41 21 8 36 -10 42 -50 4 -22 8 -51 10 -65
2 -14 7 -50 10 -80 7 -64 10 -68 50 -70 100 -7 99 -7 160 88 30 48 79 134 108
191 47 94 52 110 52 172 0 61 -3 71 -29 98 -16 17 -45 36 -63 42 -31 10 -119
20 -125 14z"/>
<path d="M1095 1021 c14 -6 22 -21 26 -52 l6 -44 1 43 c2 34 6 44 25 52 17 7
12 9 -28 9 -34 0 -44 -3 -30 -8z"/>
<path d="M1186 1011 c-32 -35 8 -91 54 -76 52 16 44 95 -8 95 -16 0 -37 -9
-46 -19z m70 -17 c8 -31 -6 -47 -37 -42 -27 3 -37 32 -19 53 20 24 49 18 56
-11z"/>
<path d="M1299 1025 c-3 -2 -3 -20 -1 -40 9 -73 82 -68 82 5 0 22 -4 40 -9 40
-5 0 -8 -13 -6 -28 5 -36 -7 -55 -31 -50 -13 2 -19 13 -21 37 -3 36 -6 44 -14
36z"/>
<path d="M1412 1018 c-28 -28 -2 -90 35 -83 10 2 21 4 26 4 4 1 7 5 7 9 0 5
-13 7 -29 4 -33 -5 -47 18 -30 50 8 14 18 19 35 15 13 -2 24 0 24 4 0 13 -54
11 -68 -3z"/>
<path d="M1510 1030 c-8 -14 -7 -91 1 -96 5 -3 9 6 9 19 0 20 5 24 28 23 22
-1 26 -5 24 -25 -2 -13 0 -21 5 -18 13 8 16 97 3 97 -5 0 -10 -9 -10 -20 0
-30 -47 -28 -53 3 -2 12 -5 20 -7 17z"/>
<path d="M1628 1023 c18 -4 22 -11 22 -40 0 -30 -3 -35 -20 -30 -22 6 -28 -8
-7 -16 25 -10 42 11 43 53 0 38 -1 40 -30 39 -24 -1 -26 -3 -8 -6z"/>
<path d="M1702 984 c-13 -26 -21 -49 -18 -52 3 -3 8 3 12 12 8 20 47 21 64 1
7 -9 15 -14 17 -12 5 6 -37 97 -45 97 -5 0 -18 -21 -30 -46z m41 6 c4 -15 0
-20 -14 -20 -17 0 -18 3 -9 20 6 11 12 20 14 20 2 0 6 -9 9 -20z"/>
<path d="M1799 1018 c-3 -27 1 -81 6 -86 3 -3 5 18 5 46 0 29 -2 52 -5 52 -3
0 -6 -6 -6 -12z"/>
</g>
</svg>
